Coordinates
version=1
nRows=11
nColumns=63
inDegrees=yes

Units are S.I. units (second, meters, Newtons, ...)
If the header above contains a line with 'inDegrees', this indicates whether rotational values are in degrees (yes) or radians (no).

endheader
time	pelvis_tilt	pelvis_list	pelvis_rotation	pelvis_tx	pelvis_ty	pelvis_tz	hip_flexion_r	hip_adduction_r	hip_rotation_r	knee_angle_r	knee_angle_r_beta	ankle_angle_r	subtalar_angle_r	mtp_angle_r	hip_flexion_l	hip_adduction_l	hip_rotation_l	knee_angle_l	knee_angle_l_beta	ankle_angle_l	subtalar_angle_l	mtp_angle_l	L5_S1_Flex_Ext	L5_S1_Lat_Bending	L5_S1_axial_rotation	L4_L5_Flex_Ext	L4_L5_Lat_Bending	L4_L5_axial_rotation	L3_L4_Flex_Ext	L3_L4_Lat_Bending	L3_L4_axial_rotation	L2_L3_Flex_Ext	L2_L3_Lat_Bending	L2_L3_axial_rotation	L1_L2_Flex_Ext	L1_L2_Lat_Bending	L1_L2_axial_rotation	L1_T12_Flex_Ext	L1_T12_Lat_Bending	L1_T12_axial_rotation	Abs_r3	Abs_r2	Abs_r1	Abs_t1	Abs_t2	neck_flexion	neck_bending	neck_rotation	arm_flex_r	arm_add_r	arm_rot_r	elbow_flex_r	pro_sup_r	wrist_flex_r	wrist_dev_r	arm_flex_l	arm_add_l	arm_rot_l	elbow_flex_l	pro_sup_l	wrist_flex_l	wrist_dev_l
      8.53703704	     16.00465789	      1.51526587	     74.54049774	      0.09604836	      1.12899654	      0.01629341	     -3.95901688	     10.76238725	     13.30652946	     13.39625438	      0.23380875	     30.01949546	      0.49847417	      0.00000000	     -8.73411275	     -9.49541527	     -4.25106205	      9.01223786	      0.15729322	     34.57503035	    -15.98013337	      0.00000000	     -0.56432766	      1.02078786	      3.62434875	     -1.04801290	      1.35764785	      3.85087055	     -0.92713391	      2.48194360	      3.85087055	     -0.64497008	      2.48194360	      3.17130516	     -0.52403467	      2.08159061	      2.94478336	     -0.32245683	      1.58120040	      2.71826156	     -4.03093605	     11.54735644	     20.15754045	      0.00000000	      0.00000000	     22.03520183	      6.00183437	    -44.70462293	     11.61714509	   -100.02812142	    -75.54069720	    129.01978175	     86.35256850	     -9.64223658	     -6.14002151	     59.23170116	     54.40929635	    186.74672579	      0.04598347	      0.56156909	    -69.92140590	    -24.52203987
      8.55555556	     15.82724836	      1.22329176	     73.49245908	      0.09534200	      1.12911028	      0.01395130	     -3.78839978	     10.43834813	     13.56820356	     13.42113570	      0.23424301	     30.26250136	      0.87896875	      0.00000000	     -9.27868965	     -9.01932145	     -4.56006616	      8.03978683	      0.14032075	     34.16441002	    -16.25363868	      0.00000000	     -0.53512707	      1.02016336	      3.61282230	     -0.99378449	      1.35681727	      3.83862369	     -0.87916027	      2.48042520	      3.83862369	     -0.61159673	      2.48042520	      3.16121951	     -0.49691900	      2.08031713	      2.93541812	     -0.30577161	      1.58023305	      2.70961672	     -3.82235916	     11.54029200	     20.09343376	      0.00000000	      0.00000000	     23.07396094	      6.32253757	    -44.70735222	     11.08626424	    -99.82021690	    -76.56097674	    128.92005234	     86.12518438	    -11.07678647	     -6.25739943	     58.24635469	     54.39420075	    186.12953504	      0.04706526	      0.55344646	    -69.91994750	    -24.51040697
      8.57407407	     15.67815626	      0.91414699	     72.77339808	      0.09420465	      1.12910909	      0.01221923	     -3.54245981	     10.19979699	     13.66098251	     13.37436361	      0.23342668	     30.44119388	      1.02146018	      0.00000000	     -9.46403129	     -8.69145523	     -4.43608648	      7.56175695	      0.13197756	     34.12998344	    -16.26919158	      0.00000000	     -0.49956158	      1.03203888	      3.58835046	     -0.92773582	      1.37261171	      3.81262236	     -0.82072973	      2.50929933	      3.81262236	     -0.57094894	      2.50929933	      3.13980665	     -0.46389289	      2.10453368	      2.91553475	     -0.28544949	      1.59862822	      2.69126284	     -3.56831845	     11.67463020	     19.95732873	      0.00000000	      0.00000000	     23.34669746	      6.05787145	    -44.72193675	     11.27130386	    -99.64457016	    -77.33258578	    128.95446878	     86.07226970	    -11.56940715	     -6.42508267	     57.42975793	     54.34907222	    185.70179808	      0.04765532	      0.52431877	    -69.91913312	    -24.48223654
      8.59259259	     15.60643687	      0.66129968	     71.21410349	      0.09356334	      1.12939913	      0.01100200	     -3.26321110	      9.83218428	     13.17459919	     13.56997101	      0.23684067	     30.90183846	      3.13938481	      0.00000000	    -10.05869720	     -8.21498825	     -4.91554603	      6.81497247	      0.11894371	     33.64507442	    -16.81001844	      0.00000000	     -0.50055599	      1.04316657	      3.52759642	     -0.92958253	      1.38741153	      3.74807120	     -0.82236344	      2.53635519	      3.74807120	     -0.57208544	      2.53635519	      3.08664687	     -0.46481629	      2.12722526	      2.86617209	     -0.28601769	      1.61586501	      2.64569732	     -3.57542138	     11.80050883	     19.61943301	      0.00000000	      0.00000000	     22.84897302	      6.26533332	    -44.71335781	     -2.00965286	    -99.26497290	    -91.39071259	    128.48057337	     86.57961836	    -13.17659536	     -8.70400102	     56.96547048	     53.84189656	    183.93690370	      0.04864655	      0.51703307	    -69.91877282	    -24.47700056
      8.61111111	     15.73935991	      0.10838077	     70.22581115	      0.09225784	      1.12900746	      0.00940724	     -2.82081643	      9.93881367	     13.35285125	     13.57703078	      0.23696389	     30.94930541	      3.52543346	      0.00000000	    -10.16575243	     -8.17566862	     -5.03898765	      6.43855427	      0.11237397	     33.49756901	    -16.92004632	      0.00000000	     -0.46699754	      1.08313301	      3.44246163	     -0.86726113	      1.44056690	      3.65761548	     -0.76723026	      2.63352960	      3.65761548	     -0.53373149	      2.63352960	      3.01215392	     -0.43365391	      2.20872484	      2.79700007	     -0.26684239	      1.67777303	      2.58184622	     -3.33571672	     12.25261724	     19.14593883	      0.00000000	      0.00000000	     23.12107491	      6.56304691	    -44.72059387	     -1.15852163	    -99.36523875	    -92.07158487	    128.37524649	     86.50885772	    -13.69777735	     -9.36409089	     56.32352315	     53.83634760	    183.26574528	      0.04924655	      0.49725888	    -69.91865485	    -24.46328013
      8.62962963	     16.02559905	     -0.40889117	     68.54181058	      0.09104722	      1.12838602	      0.00788358	     -2.44246813	      9.89061527	     12.18752352	     13.69401987	      0.23900573	     31.49041220	      6.80249322	      0.00000000	    -10.51554138	     -8.10027786	     -6.02659457	      6.16410650	      0.10758395	     33.25051186	    -17.06638634	      0.00000000	     -0.47479961	      1.14391523	      3.50436603	     -0.88175035	      1.52140725	      3.72338891	     -0.78004827	      2.78131548	      3.72338891	     -0.54264847	      2.78131548	      3.06632028	     -0.44089891	      2.33267193	      2.84729740	     -0.27130049	      1.77192468	      2.62827453	     -3.39144610	     12.94019782	     19.49023257	      0.00000000	      0.00000000	     23.92822676	      6.86561484	    -44.72850125	     13.42705201	   -100.75493555	    -76.72879353	    127.41822511	     85.41695169	    -23.92329156	    -15.45184115	     55.88299701	     54.24572670	    182.85353316	      0.04980089	      0.49309980	    -69.91840153	    -24.46872799
      8.64814815	     16.36644963	     -1.15438295	     67.04446681	      0.08987359	      1.12728352	      0.00602525	     -1.97208792	     10.08923608	     11.59161295	     13.68820908	      0.23890432	     31.80897425	      9.06056312	      0.00000000	    -10.65124616	     -8.20697053	     -6.93158340	      5.95977453	      0.10401769	     32.98179999	    -17.16357619	      0.00000000	     -0.46576773	      1.21215158	      3.48738034	     -0.86497725	      1.61216160	      3.70534161	     -0.76520980	      2.94722535	      3.70534161	     -0.53232594	      2.94722535	      3.05145780	     -0.43251191	      2.47181950	      2.83349653	     -0.26613968	      1.87762279	      2.61553526	     -3.32693230	     13.71210108	     19.39576324	      0.00000000	      0.00000000	     25.05298985	      7.36749968	    -44.73340968	     27.39533074	   -102.88774583	    -62.86343056	    127.01745089	     81.76284189	    -30.90349701	    -18.35951656	     55.67197668	     54.70467441	    183.04655481	      0.04993307	      0.48377732	    -69.91848051	    -24.47038601
      8.66666667	     16.66902272	     -2.03175150	     65.71401079	      0.08897383	      1.12587339	      0.00395725	     -1.44737894	     10.36159025	     11.04795837	     13.58967558	      0.23718458	     32.05186257	     11.06501250	      0.00000000	    -10.62518126	     -8.39203113	     -7.84599022	      5.81337672	      0.10146256	     32.66774724	    -17.18401871	      0.00000000	     -0.44896405	      1.27734886	      3.40023771	     -0.83377113	      1.69887399	      3.61275257	     -0.73760303	      3.10574602	      3.61275257	     -0.51312101	      3.10574602	      2.97520800	     -0.41690801	      2.60476980	      2.76269314	     -0.25653806	      1.97861339	      2.55017829	     -3.20690528	     14.44962581	     18.91110209	      0.00000000	      0.00000000	     26.06101808	      7.91056463	    -44.73343531	     39.25719170	   -105.72361104	    -51.16211698	    126.83354176	     75.28934497	    -35.76755374	    -20.94609662	     55.70954155	     55.14631894	    183.93878083	      0.04977974	      0.48094229	    -69.91849089	    -24.47885540
      8.68518519	     16.86044488	     -2.98157758	     64.46225965	      0.08860625	      1.12438324	      0.00184461	     -0.86750265	     10.65313400	     10.82592664	     13.46653401	      0.23503536	     32.23638403	     12.59389252	      0.00000000	    -10.47680114	     -8.57037700	     -8.86287517	      5.68551780	      0.09923101	     32.33820263	    -17.02462297	      0.00000000	     -0.43014038	      1.32801625	      3.22165510	     -0.79881369	      1.76626161	      3.42300855	     -0.70667762	      3.22893871	      3.42300855	     -0.49160744	      3.22893871	      2.81894822	     -0.39942835	      2.70809074	      2.61759477	     -0.24578221	      2.05709717	      2.41624133	     -3.07244969	     15.02278542	     17.91787920	      0.00000000	      0.00000000	     26.72114397	      8.44469275	    -44.72413506	     46.98208329	   -108.22903555	    -43.60068292	    126.95200094	     68.66863205	    -39.60299139	    -22.36739988	     55.95231259	     55.41244353	    185.59127737	      0.04931912	      0.48527269	    -69.91824545	    -24.49116459
      8.70370370	     17.17655938	     -4.10151903	     63.43709321	      0.08839949	      1.12290889	     -0.00002809	     -0.21849668	     11.25867844	     11.01990974	     13.29674387	      0.23207196	     32.15860115	     13.26307918	      0.00000000	    -10.13688641	     -9.03799805	     -9.65521313	      5.61214460	      0.09795040	     32.03208836	    -17.03707556	      0.00000000	     -0.40935520	      1.39346887	      2.84794718	     -0.76021354	      1.85331359	      3.02594387	     -0.67252965	      3.38808021	      3.02594387	     -0.46785206	      3.38808021	      2.49195378	     -0.38012724	      2.84156172	      2.31395708	     -0.23390556	      2.15848328	      2.13596038	     -2.92398324	     15.76319853	     15.83942781	      0.00000000	      0.00000000	     26.91315307	      9.23302441	    -44.69123860	     47.94891321	   -108.52310856	    -43.26106776	    126.56801235	     66.17389378	    -41.36295920	    -22.65294241	     56.58450141	     55.22735972	    187.56791630	      0.04836992	      0.48580913	    -69.91768575	    -24.49529978
      8.72222222	     17.07223536	     -4.89068697	     62.95881615	      0.08796701	      1.12124312	     -0.00167179	      0.39965924	     11.32573162	     10.42157119	     13.18290045	      0.23008502	     32.49302826	     14.33759645	      0.00000000	     -9.61179641	     -9.13354231	     -9.79077851	      5.78280189	      0.10092893	     31.99191892	    -16.88649794	      0.00000000	     -0.40957013	      1.40142513	      2.38330523	     -0.76061269	      1.86389542	      2.53226180	     -0.67288277	      3.40742506	      2.53226180	     -0.46809770	      3.40742506	      2.08539207	     -0.38032683	      2.85778612	      1.93643550	     -0.23402837	      2.17080753	      1.78747892	     -2.92551850	     15.85320135	     13.25522867	      0.00000000	      0.00000000	     26.86676944	      9.70005623	    -44.65002554	     47.52615936	   -108.52999167	    -42.56546308	    127.26970818	     59.20624955	    -46.67324452	    -23.41944854	     57.26659963	     54.89180251	    189.17427780	      0.04811681	      0.51147132	    -69.91680526	    -24.51298568
